# xmcd
#
# Track frame offsets: 
#        150
#        15820
#        33650
#        44702
#        55495
#        67835
#        82467
#        95580
#        107780
#        121285
#
# Disc length: 1780 seconds
#
# Revision: 0
# Processed by: cddbd v1.5.1PL0 Copyright (c) Steve Scherf et al.
# Submitted via: ExactAudioCopy v0.95a5
#
DISCID=8806f20a
DTITLE=Justin Tubb - What's Wromg With the Way We're Doing It Now 
DYEAR=1900
DGENRE=
TTITLE0=What's Wrong with the Way That We're Doing It Now
TTITLE1=I Gotta Go Get My Baby
TTITLE2=Lonesome 7-7203
TTITLE3=Take a Letter Miss Gray
TTITLE4=As Long as There's a Sunday
TTITLE5=2 out of 3 Ain't Bad
TTITLE6=My Ex-Wife Is Gonna Be My Next Wife
TTITLE7=Lookin' Back to See
TTITLE8=You'd Never Be Happy with Me
TTITLE9=Pull the Covers over Me
EXTD=
EXTT0=
EXTT1=
EXTT2=
EXTT3=
EXTT4=
EXTT5=
EXTT6=
EXTT7=
EXTT8=
EXTT9=
PLAYORDER=
